<?xml version="1.0" standalone="no"?>
<!DOCTYPE svg PUBLIC "-//W3C//DTD SVG 20010904//EN"
 "http://www.w3.org/TR/2001/REC-SVG-20010904/DTD/svg10.dtd">
<svg version="1.0" xmlns="http://www.w3.org/2000/svg"
 width="300.000000pt" height="300.000000pt" viewBox="0 0 300.000000 300.000000"
 preserveAspectRatio="xMidYMid meet">
<metadata>
Created by potrace 1.11, written by Peter Selinger 2001-2013
</metadata>
<g transform="translate(0.000000,300.000000) scale(0.100000,-0.100000)"
fill="#000000" stroke="none">
<path d="M2580 2862 c0 -30 -67 -283 -110 -417 -214 -662 -645 -1360 -1083
-1756 -226 -204 -455 -338 -650 -382 l-67 -15 0 23 c0 13 12 61 26 107 125
399 517 1134 945 1775 104 154 116 192 99 290 -15 90 -53 167 -113 230 -69 73
-111 88 -235 79 -511 -36 -1019 -220 -1246 -451 -76 -76 -106 -143 -106 -234
0 -108 44 -188 168 -308 l75 -72 31 72 c144 330 431 602 785 742 93 37 315 98
337 93 7 -2 -26 -64 -74 -143 -357 -585 -653 -1212 -787 -1662 -61 -206 -78
-304 -79 -453 -1 -125 1 -139 24 -184 14 -28 36 -58 50 -68 24 -17 28 -17 127
12 190 55 398 160 638 321 293 197 554 441 843 789 333 401 674 943 761 1209
24 75 28 185 7 235 -30 72 -116 130 -232 159 -105 26 -134 28 -134 9z"/>
</g>
</svg>
